<svg width="362" height="52" viewBox="0 0 362 52" fill="none" xmlns="http://www.w3.org/2000/svg">
<rect x="23" y="13" width="49" height="4" fill="#0A846B"/>
<rect x="72" y="13" width="254" height="4" fill="#84C1B4"/>
<circle cx="122" cy="14" r="14" fill="#84C1B4"/>
<path d="M119.762 12.6635C119.424 12.6583 119.099 12.5358 118.841 12.3172C118.304 11.8247 117.978 11.1433 117.933 10.4161C117.791 8.96264 118.585 8.10504 119.442 8.00943C119.648 7.98655 119.857 8.00542 120.056 8.06491C120.255 8.1244 120.44 8.22331 120.6 8.35573C120.839 8.57076 121.033 8.83084 121.17 9.12099C121.308 9.41115 121.387 9.72566 121.403 10.0464C121.533 11.4013 120.908 12.6635 119.762 12.6635ZM119.571 9.16552C119.234 9.20283 119.034 9.68031 119.094 10.3C119.111 10.7164 119.283 11.1114 119.576 11.4078C119.632 11.4623 119.706 11.4943 119.783 11.4975C119.988 11.4748 120.318 10.9489 120.24 10.1566C120.041 9.06874 119.586 9.16552 119.571 9.16844V9.16552ZM116.846 16.1616C116.508 16.1563 116.182 16.0339 115.925 15.8153C115.387 15.3227 115.062 14.6413 115.017 13.9141C114.875 12.4607 115.668 11.6031 116.525 11.5074C116.731 11.4848 116.94 11.5038 117.139 11.5633C117.338 11.6228 117.523 11.7216 117.683 11.8537C117.922 12.0688 118.116 12.3289 118.254 12.619C118.391 12.9092 118.47 13.2237 118.486 13.5445C118.617 14.8994 117.962 16.1616 116.846 16.1616ZM116.654 12.6635C116.318 12.7009 116.117 13.1783 116.178 13.7981C116.195 14.2144 116.367 14.6094 116.66 14.9058C116.716 14.9595 116.789 14.9913 116.867 14.9956C117.072 14.9728 117.401 14.4469 117.324 13.6546C117.169 12.5889 116.669 12.6635 116.654 12.6665V12.6635ZM124.238 12.6635C123.241 12.6705 122.468 11.4008 122.6 10.0447C122.616 9.72391 122.695 9.4094 122.833 9.11924C122.97 8.82909 123.164 8.56901 123.403 8.35398C123.563 8.22235 123.747 8.12405 123.946 8.06487C124.144 8.00569 124.353 7.98684 124.558 8.00943C125.415 8.10504 126.209 8.96264 126.067 10.4161C126.022 11.1435 125.696 11.8252 125.159 12.3178C124.901 12.5362 124.575 12.6584 124.238 12.6635ZM123.762 10.1566C123.684 10.9466 124.014 11.4725 124.218 11.4975C124.295 11.4945 124.367 11.4646 124.424 11.413C124.717 11.1167 124.889 10.7216 124.906 10.3053C125.028 8.77724 123.867 8.87694 123.762 10.1566ZM127.154 16.1616C126.068 16.1616 125.384 14.8988 125.517 13.5427C125.533 13.2219 125.612 12.9074 125.749 12.6173C125.887 12.3271 126.081 12.067 126.319 11.852C126.479 11.7199 126.664 11.6212 126.862 11.5617C127.061 11.5022 127.269 11.4832 127.475 11.5057C128.332 11.6013 129.125 12.4589 128.983 13.9123C128.938 14.6398 128.613 15.3214 128.075 15.8141C127.818 16.0331 127.492 16.1559 127.154 16.1616ZM126.678 13.6546C126.601 14.4446 126.93 14.9705 127.135 14.9956C127.211 14.9915 127.283 14.9617 127.34 14.911C127.633 14.6147 127.805 14.2197 127.822 13.8033C127.88 13.1836 127.682 12.7061 127.346 12.6688C127.331 12.6635 126.734 12.6117 126.678 13.6546ZM124.333 21.9916C123.835 22.0015 123.342 21.8797 122.906 21.6383C122.627 21.4912 122.316 21.4144 122 21.4144C121.684 21.4144 121.373 21.4912 121.094 21.6383C119.337 22.623 117.288 21.5409 117.333 19.0766C117.333 16.3744 119.962 13.8295 122 13.8295C124.038 13.8295 126.667 16.3738 126.667 19.0766C126.667 20.7929 125.707 21.9916 124.333 21.9916ZM122 20.2426C122.499 20.2328 122.991 20.3544 123.427 20.5953C124.732 21.3054 125.52 20.3429 125.5 19.0766C125.5 17.106 123.446 14.9956 122 14.9956C120.554 14.9956 118.5 17.106 118.5 19.0766C118.481 20.3411 119.263 21.3054 120.573 20.5953C121.009 20.3544 121.501 20.2328 122 20.2426Z" fill="white"/>
<circle cx="14" cy="14" r="14" fill="#0A846B"/>
<g clip-path="url(#clip0_370_974)">
<path d="M14 14C14.6922 14 15.3689 13.7947 15.9445 13.4101C16.5201 13.0256 16.9687 12.4789 17.2336 11.8394C17.4985 11.1999 17.5678 10.4961 17.4327 9.81719C17.2977 9.13825 16.9644 8.51461 16.4749 8.02513C15.9854 7.53564 15.3617 7.2023 14.6828 7.06725C14.0039 6.9322 13.3001 7.00152 12.6606 7.26642C12.0211 7.53133 11.4744 7.97993 11.0899 8.55551C10.7053 9.13108 10.5 9.80777 10.5 10.5C10.5009 11.428 10.87 12.3177 11.5261 12.9739C12.1823 13.63 13.072 13.9991 14 14ZM14 8.16667C14.4615 8.16667 14.9126 8.30352 15.2963 8.55991C15.68 8.8163 15.9791 9.18071 16.1557 9.60707C16.3323 10.0334 16.3785 10.5026 16.2885 10.9552C16.1985 11.4078 15.9762 11.8236 15.6499 12.1499C15.3236 12.4762 14.9078 12.6985 14.4552 12.7885C14.0026 12.8785 13.5334 12.8323 13.1071 12.6557C12.6807 12.4791 12.3163 12.18 12.0599 11.7963C11.8035 11.4126 11.6667 10.9615 11.6667 10.5C11.6667 9.88116 11.9125 9.28767 12.3501 8.85009C12.7877 8.4125 13.3812 8.16667 14 8.16667Z" fill="white"/>
<path d="M14 15.1667C12.6081 15.1682 11.2736 15.7218 10.2894 16.7061C9.30516 17.6903 8.75154 19.0247 8.75 20.4167C8.75 20.5714 8.81146 20.7197 8.92085 20.8291C9.03025 20.9385 9.17862 21 9.33333 21C9.48804 21 9.63642 20.9385 9.74581 20.8291C9.85521 20.7197 9.91667 20.5714 9.91667 20.4167C9.91667 19.3337 10.3469 18.2951 11.1126 17.5293C11.8784 16.7635 12.917 16.3333 14 16.3333C15.083 16.3333 16.1216 16.7635 16.8874 17.5293C17.6531 18.2951 18.0833 19.3337 18.0833 20.4167C18.0833 20.5714 18.1448 20.7197 18.2542 20.8291C18.3636 20.9385 18.512 21 18.6667 21C18.8214 21 18.9697 20.9385 19.0791 20.8291C19.1885 20.7197 19.25 20.5714 19.25 20.4167C19.2485 19.0247 18.6948 17.6903 17.7106 16.7061C16.7264 15.7218 15.3919 15.1682 14 15.1667Z" fill="white"/>
</g>
<path d="M6.288 39.66V40.776H4.068V48H2.7V40.776H0.468V39.66H6.288ZM13.6614 41.388V48H12.2934V47.22C12.0774 47.492 11.7934 47.708 11.4414 47.868C11.0974 48.02 10.7294 48.096 10.3374 48.096C9.81744 48.096 9.34944 47.988 8.93344 47.772C8.52544 47.556 8.20144 47.236 7.96144 46.812C7.72944 46.388 7.61344 45.876 7.61344 45.276V41.388H8.96944V45.072C8.96944 45.664 9.11744 46.12 9.41344 46.44C9.70944 46.752 10.1134 46.908 10.6254 46.908C11.1374 46.908 11.5414 46.752 11.8374 46.44C12.1414 46.12 12.2934 45.664 12.2934 45.072V41.388H13.6614ZM17.0624 42.504V46.164C17.0624 46.412 17.1184 46.592 17.2304 46.704C17.3504 46.808 17.5504 46.86 17.8304 46.86H18.6704V48H17.5904C16.9744 48 16.5024 47.856 16.1744 47.568C15.8464 47.28 15.6824 46.812 15.6824 46.164V42.504H14.9024V41.388H15.6824V39.744H17.0624V41.388H18.6704V42.504H17.0624ZM22.7993 48.108C22.1753 48.108 21.6113 47.968 21.1073 47.688C20.6033 47.4 20.2073 47 19.9193 46.488C19.6313 45.968 19.4873 45.368 19.4873 44.688C19.4873 44.016 19.6353 43.42 19.9313 42.9C20.2273 42.38 20.6313 41.98 21.1433 41.7C21.6553 41.42 22.2273 41.28 22.8593 41.28C23.4913 41.28 24.0633 41.42 24.5753 41.7C25.0873 41.98 25.4913 42.38 25.7873 42.9C26.0833 43.42 26.2313 44.016 26.2313 44.688C26.2313 45.36 26.0793 45.956 25.7753 46.476C25.4713 46.996 25.0553 47.4 24.5273 47.688C24.0073 47.968 23.4313 48.108 22.7993 48.108ZM22.7993 46.92C23.1513 46.92 23.4793 46.836 23.7833 46.668C24.0953 46.5 24.3473 46.248 24.5393 45.912C24.7313 45.576 24.8273 45.168 24.8273 44.688C24.8273 44.208 24.7353 43.804 24.5513 43.476C24.3673 43.14 24.1233 42.888 23.8193 42.72C23.5153 42.552 23.1873 42.468 22.8353 42.468C22.4833 42.468 22.1553 42.552 21.8513 42.72C21.5553 42.888 21.3193 43.14 21.1433 43.476C20.9673 43.804 20.8793 44.208 20.8793 44.688C20.8793 45.4 21.0593 45.952 21.4193 46.344C21.7873 46.728 22.2473 46.92 22.7993 46.92ZM28.9516 42.348C29.1516 42.012 29.4156 41.752 29.7436 41.568C30.0796 41.376 30.4756 41.28 30.9316 41.28V42.696H30.5836C30.0476 42.696 29.6396 42.832 29.3596 43.104C29.0876 43.376 28.9516 43.848 28.9516 44.52V48H27.5836V41.388H28.9516V42.348Z" fill="#0A846B"/>
<path d="M118.732 42.144C118.732 42.568 118.632 42.968 118.432 43.344C118.232 43.72 117.912 44.028 117.472 44.268C117.032 44.5 116.468 44.616 115.78 44.616H114.268V48H112.9V39.66H115.78C116.42 39.66 116.96 39.772 117.4 39.996C117.848 40.212 118.18 40.508 118.396 40.884C118.62 41.26 118.732 41.68 118.732 42.144ZM115.78 43.5C116.3 43.5 116.688 43.384 116.944 43.152C117.2 42.912 117.328 42.576 117.328 42.144C117.328 41.232 116.812 40.776 115.78 40.776H114.268V43.5H115.78ZM126.097 44.532C126.097 44.78 126.081 45.004 126.049 45.204H120.997C121.037 45.732 121.233 46.156 121.585 46.476C121.937 46.796 122.369 46.956 122.881 46.956C123.617 46.956 124.137 46.648 124.441 46.032H125.917C125.717 46.64 125.353 47.14 124.825 47.532C124.305 47.916 123.657 48.108 122.881 48.108C122.249 48.108 121.681 47.968 121.177 47.688C120.681 47.4 120.289 47 120.001 46.488C119.721 45.968 119.581 45.368 119.581 44.688C119.581 44.008 119.717 43.412 119.989 42.9C120.269 42.38 120.657 41.98 121.153 41.7C121.657 41.42 122.233 41.28 122.881 41.28C123.505 41.28 124.061 41.416 124.549 41.688C125.037 41.96 125.417 42.344 125.689 42.84C125.961 43.328 126.097 43.892 126.097 44.532ZM124.669 44.1C124.661 43.596 124.481 43.192 124.129 42.888C123.777 42.584 123.341 42.432 122.821 42.432C122.349 42.432 121.945 42.584 121.609 42.888C121.273 43.184 121.073 43.588 121.009 44.1H124.669ZM129.039 42.504V46.164C129.039 46.412 129.095 46.592 129.207 46.704C129.327 46.808 129.527 46.86 129.807 46.86H130.647V48H129.567C128.951 48 128.479 47.856 128.151 47.568C127.823 47.28 127.659 46.812 127.659 46.164V42.504H126.879V41.388H127.659V39.744H129.039V41.388H130.647V42.504H129.039Z" fill="#0A846B"/>
<path d="M204.732 42.144C204.732 42.568 204.632 42.968 204.432 43.344C204.232 43.72 203.912 44.028 203.472 44.268C203.032 44.5 202.468 44.616 201.78 44.616H200.268V48H198.9V39.66H201.78C202.42 39.66 202.96 39.772 203.4 39.996C203.848 40.212 204.18 40.508 204.396 40.884C204.62 41.26 204.732 41.68 204.732 42.144ZM201.78 43.5C202.3 43.5 202.688 43.384 202.944 43.152C203.2 42.912 203.328 42.576 203.328 42.144C203.328 41.232 202.812 40.776 201.78 40.776H200.268V43.5H201.78ZM205.581 44.664C205.581 44 205.717 43.412 205.989 42.9C206.269 42.388 206.645 41.992 207.117 41.712C207.597 41.424 208.125 41.28 208.701 41.28C209.221 41.28 209.673 41.384 210.057 41.592C210.449 41.792 210.761 42.044 210.993 42.348V41.388H212.373V48H210.993V47.016C210.761 47.328 210.445 47.588 210.045 47.796C209.645 48.004 209.189 48.108 208.677 48.108C208.109 48.108 207.589 47.964 207.117 47.676C206.645 47.38 206.269 46.972 205.989 46.452C205.717 45.924 205.581 45.328 205.581 44.664ZM210.993 44.688C210.993 44.232 210.897 43.836 210.705 43.5C210.521 43.164 210.277 42.908 209.973 42.732C209.669 42.556 209.341 42.468 208.989 42.468C208.637 42.468 208.309 42.556 208.005 42.732C207.701 42.9 207.453 43.152 207.261 43.488C207.077 43.816 206.985 44.208 206.985 44.664C206.985 45.12 207.077 45.52 207.261 45.864C207.453 46.208 207.701 46.472 208.005 46.656C208.317 46.832 208.645 46.92 208.989 46.92C209.341 46.92 209.669 46.832 209.973 46.656C210.277 46.48 210.521 46.224 210.705 45.888C210.897 45.544 210.993 45.144 210.993 44.688ZM216.834 41.28C217.346 41.28 217.798 41.384 218.19 41.592C218.59 41.792 218.902 42.044 219.126 42.348V41.388H220.506V48.108C220.506 48.716 220.378 49.256 220.122 49.728C219.866 50.208 219.494 50.584 219.006 50.856C218.526 51.128 217.95 51.264 217.278 51.264C216.382 51.264 215.638 51.052 215.046 50.628C214.454 50.212 214.118 49.644 214.038 48.924H215.394C215.498 49.268 215.718 49.544 216.054 49.752C216.398 49.968 216.806 50.076 217.278 50.076C217.83 50.076 218.274 49.908 218.61 49.572C218.954 49.236 219.126 48.748 219.126 48.108V47.004C218.894 47.316 218.578 47.58 218.178 47.796C217.786 48.004 217.338 48.108 216.834 48.108C216.258 48.108 215.73 47.964 215.25 47.676C214.778 47.38 214.402 46.972 214.122 46.452C213.85 45.924 213.714 45.328 213.714 44.664C213.714 44 213.85 43.412 214.122 42.9C214.402 42.388 214.778 41.992 215.25 41.712C215.73 41.424 216.258 41.28 216.834 41.28ZM219.126 44.688C219.126 44.232 219.03 43.836 218.838 43.5C218.654 43.164 218.41 42.908 218.106 42.732C217.802 42.556 217.474 42.468 217.122 42.468C216.77 42.468 216.442 42.556 216.138 42.732C215.834 42.9 215.586 43.152 215.394 43.488C215.21 43.816 215.118 44.208 215.118 44.664C215.118 45.12 215.21 45.52 215.394 45.864C215.586 46.208 215.834 46.472 216.138 46.656C216.45 46.832 216.778 46.92 217.122 46.92C217.474 46.92 217.802 46.832 218.106 46.656C218.41 46.48 218.654 46.224 218.838 45.888C219.03 45.544 219.126 45.144 219.126 44.688ZM221.846 44.664C221.846 44 221.982 43.412 222.254 42.9C222.534 42.388 222.91 41.992 223.382 41.712C223.862 41.424 224.39 41.28 224.966 41.28C225.486 41.28 225.938 41.384 226.322 41.592C226.714 41.792 227.026 42.044 227.258 42.348V41.388H228.638V48H227.258V47.016C227.026 47.328 226.71 47.588 226.31 47.796C225.91 48.004 225.454 48.108 224.942 48.108C224.374 48.108 223.854 47.964 223.382 47.676C222.91 47.38 222.534 46.972 222.254 46.452C221.982 45.924 221.846 45.328 221.846 44.664ZM227.258 44.688C227.258 44.232 227.162 43.836 226.97 43.5C226.786 43.164 226.542 42.908 226.238 42.732C225.934 42.556 225.606 42.468 225.254 42.468C224.902 42.468 224.574 42.556 224.27 42.732C223.966 42.9 223.718 43.152 223.526 43.488C223.342 43.816 223.25 44.208 223.25 44.664C223.25 45.12 223.342 45.52 223.526 45.864C223.718 46.208 223.966 46.472 224.27 46.656C224.582 46.832 224.91 46.92 225.254 46.92C225.606 46.92 225.934 46.832 226.238 46.656C226.542 46.48 226.786 46.224 226.97 45.888C227.162 45.544 227.258 45.144 227.258 44.688ZM238.439 41.28C238.959 41.28 239.423 41.388 239.831 41.604C240.247 41.82 240.571 42.14 240.803 42.564C241.043 42.988 241.163 43.5 241.163 44.1V48H239.807V44.304C239.807 43.712 239.659 43.26 239.363 42.948C239.067 42.628 238.663 42.468 238.151 42.468C237.639 42.468 237.231 42.628 236.927 42.948C236.631 43.26 236.483 43.712 236.483 44.304V48H235.127V44.304C235.127 43.712 234.979 43.26 234.683 42.948C234.387 42.628 233.983 42.468 233.471 42.468C232.959 42.468 232.551 42.628 232.247 42.948C231.951 43.26 231.803 43.712 231.803 44.304V48H230.435V41.388H231.803V42.144C232.027 41.872 232.311 41.66 232.655 41.508C232.999 41.356 233.367 41.28 233.759 41.28C234.287 41.28 234.759 41.392 235.175 41.616C235.591 41.84 235.911 42.164 236.135 42.588C236.335 42.188 236.647 41.872 237.071 41.64C237.495 41.4 237.951 41.28 238.439 41.28ZM248.964 44.532C248.964 44.78 248.948 45.004 248.916 45.204H243.864C243.904 45.732 244.1 46.156 244.452 46.476C244.804 46.796 245.236 46.956 245.748 46.956C246.484 46.956 247.004 46.648 247.308 46.032H248.784C248.584 46.64 248.22 47.14 247.692 47.532C247.172 47.916 246.524 48.108 245.748 48.108C245.116 48.108 244.548 47.968 244.044 47.688C243.548 47.4 243.156 47 242.868 46.488C242.588 45.968 242.448 45.368 242.448 44.688C242.448 44.008 242.584 43.412 242.856 42.9C243.136 42.38 243.524 41.98 244.02 41.7C244.524 41.42 245.1 41.28 245.748 41.28C246.372 41.28 246.928 41.416 247.416 41.688C247.904 41.96 248.284 42.344 248.556 42.84C248.828 43.328 248.964 43.892 248.964 44.532ZM247.536 44.1C247.528 43.596 247.348 43.192 246.996 42.888C246.644 42.584 246.208 42.432 245.688 42.432C245.216 42.432 244.812 42.584 244.476 42.888C244.14 43.184 243.94 43.588 243.876 44.1H247.536ZM253.646 41.28C254.166 41.28 254.63 41.388 255.038 41.604C255.454 41.82 255.778 42.14 256.01 42.564C256.242 42.988 256.358 43.5 256.358 44.1V48H255.002V44.304C255.002 43.712 254.854 43.26 254.558 42.948C254.262 42.628 253.858 42.468 253.346 42.468C252.834 42.468 252.426 42.628 252.122 42.948C251.826 43.26 251.678 43.712 251.678 44.304V48H250.31V41.388H251.678V42.144C251.902 41.872 252.186 41.66 252.53 41.508C252.882 41.356 253.254 41.28 253.646 41.28ZM259.699 42.504V46.164C259.699 46.412 259.755 46.592 259.867 46.704C259.987 46.808 260.187 46.86 260.467 46.86H261.307V48H260.227C259.611 48 259.139 47.856 258.811 47.568C258.483 47.28 258.319 46.812 258.319 46.164V42.504H257.539V41.388H258.319V39.744H259.699V41.388H261.307V42.504H259.699ZM265.436 48.108C264.812 48.108 264.248 47.968 263.744 47.688C263.24 47.4 262.844 47 262.556 46.488C262.268 45.968 262.124 45.368 262.124 44.688C262.124 44.016 262.272 43.42 262.568 42.9C262.864 42.38 263.268 41.98 263.78 41.7C264.292 41.42 264.864 41.28 265.496 41.28C266.128 41.28 266.7 41.42 267.212 41.7C267.724 41.98 268.128 42.38 268.424 42.9C268.72 43.42 268.868 44.016 268.868 44.688C268.868 45.36 268.716 45.956 268.412 46.476C268.108 46.996 267.692 47.4 267.164 47.688C266.644 47.968 266.068 48.108 265.436 48.108ZM265.436 46.92C265.788 46.92 266.116 46.836 266.42 46.668C266.732 46.5 266.984 46.248 267.176 45.912C267.368 45.576 267.464 45.168 267.464 44.688C267.464 44.208 267.372 43.804 267.188 43.476C267.004 43.14 266.76 42.888 266.456 42.72C266.152 42.552 265.824 42.468 265.472 42.468C265.12 42.468 264.792 42.552 264.488 42.72C264.192 42.888 263.956 43.14 263.78 43.476C263.604 43.804 263.516 44.208 263.516 44.688C263.516 45.4 263.696 45.952 264.056 46.344C264.424 46.728 264.884 46.92 265.436 46.92Z" fill="#0A846B"/>
<path d="M319.232 48L317.312 44.664H316.268V48H314.9V39.66H317.78C318.42 39.66 318.96 39.772 319.4 39.996C319.848 40.22 320.18 40.52 320.396 40.896C320.62 41.272 320.732 41.692 320.732 42.156C320.732 42.7 320.572 43.196 320.252 43.644C319.94 44.084 319.456 44.384 318.8 44.544L320.864 48H319.232ZM316.268 43.572H317.78C318.292 43.572 318.676 43.444 318.932 43.188C319.196 42.932 319.328 42.588 319.328 42.156C319.328 41.724 319.2 41.388 318.944 41.148C318.688 40.9 318.3 40.776 317.78 40.776H316.268V43.572ZM328.542 44.532C328.542 44.78 328.526 45.004 328.494 45.204H323.442C323.482 45.732 323.678 46.156 324.03 46.476C324.382 46.796 324.814 46.956 325.326 46.956C326.062 46.956 326.582 46.648 326.886 46.032H328.362C328.162 46.64 327.798 47.14 327.27 47.532C326.75 47.916 326.102 48.108 325.326 48.108C324.694 48.108 324.126 47.968 323.622 47.688C323.126 47.4 322.734 47 322.446 46.488C322.166 45.968 322.026 45.368 322.026 44.688C322.026 44.008 322.162 43.412 322.434 42.9C322.714 42.38 323.102 41.98 323.598 41.7C324.102 41.42 324.678 41.28 325.326 41.28C325.95 41.28 326.506 41.416 326.994 41.688C327.482 41.96 327.862 42.344 328.134 42.84C328.406 43.328 328.542 43.892 328.542 44.532ZM327.114 44.1C327.106 43.596 326.926 43.192 326.574 42.888C326.222 42.584 325.786 42.432 325.266 42.432C324.794 42.432 324.39 42.584 324.054 42.888C323.718 43.184 323.518 43.588 323.454 44.1H327.114ZM332.444 46.776L334.316 41.388H335.768L333.248 48H331.616L329.108 41.388H330.572L332.444 46.776ZM337.498 40.512C337.25 40.512 337.042 40.428 336.874 40.26C336.706 40.092 336.622 39.884 336.622 39.636C336.622 39.388 336.706 39.18 336.874 39.012C337.042 38.844 337.25 38.76 337.498 38.76C337.738 38.76 337.942 38.844 338.11 39.012C338.278 39.18 338.362 39.388 338.362 39.636C338.362 39.884 338.278 40.092 338.11 40.26C337.942 40.428 337.738 40.512 337.498 40.512ZM338.17 41.388V48H336.802V41.388H338.17ZM342.366 48.108C341.846 48.108 341.378 48.016 340.962 47.832C340.554 47.64 340.23 47.384 339.99 47.064C339.75 46.736 339.622 46.372 339.606 45.972H341.022C341.046 46.252 341.178 46.488 341.418 46.68C341.666 46.864 341.974 46.956 342.342 46.956C342.726 46.956 343.022 46.884 343.23 46.74C343.446 46.588 343.554 46.396 343.554 46.164C343.554 45.916 343.434 45.732 343.194 45.612C342.962 45.492 342.59 45.36 342.078 45.216C341.582 45.08 341.178 44.948 340.866 44.82C340.554 44.692 340.282 44.496 340.05 44.232C339.826 43.968 339.714 43.62 339.714 43.188C339.714 42.836 339.818 42.516 340.026 42.228C340.234 41.932 340.53 41.7 340.914 41.532C341.306 41.364 341.754 41.28 342.258 41.28C343.01 41.28 343.614 41.472 344.07 41.856C344.534 42.232 344.782 42.748 344.814 43.404H343.446C343.422 43.108 343.302 42.872 343.086 42.696C342.87 42.52 342.578 42.432 342.21 42.432C341.85 42.432 341.574 42.5 341.382 42.636C341.19 42.772 341.094 42.952 341.094 43.176C341.094 43.352 341.158 43.5 341.286 43.62C341.414 43.74 341.57 43.836 341.754 43.908C341.938 43.972 342.21 44.056 342.57 44.16C343.05 44.288 343.442 44.42 343.746 44.556C344.058 44.684 344.326 44.876 344.55 45.132C344.774 45.388 344.89 45.728 344.898 46.152C344.898 46.528 344.794 46.864 344.586 47.16C344.378 47.456 344.082 47.688 343.698 47.856C343.322 48.024 342.878 48.108 342.366 48.108ZM345.921 44.664C345.921 44 346.057 43.412 346.329 42.9C346.609 42.388 346.985 41.992 347.457 41.712C347.937 41.424 348.465 41.28 349.041 41.28C349.561 41.28 350.013 41.384 350.397 41.592C350.789 41.792 351.101 42.044 351.333 42.348V41.388H352.713V48H351.333V47.016C351.101 47.328 350.785 47.588 350.385 47.796C349.985 48.004 349.529 48.108 349.017 48.108C348.449 48.108 347.929 47.964 347.457 47.676C346.985 47.38 346.609 46.972 346.329 46.452C346.057 45.924 345.921 45.328 345.921 44.664ZM351.333 44.688C351.333 44.232 351.237 43.836 351.045 43.5C350.861 43.164 350.617 42.908 350.313 42.732C350.009 42.556 349.681 42.468 349.329 42.468C348.977 42.468 348.649 42.556 348.345 42.732C348.041 42.9 347.793 43.152 347.601 43.488C347.417 43.816 347.325 44.208 347.325 44.664C347.325 45.12 347.417 45.52 347.601 45.864C347.793 46.208 348.041 46.472 348.345 46.656C348.657 46.832 348.985 46.92 349.329 46.92C349.681 46.92 350.009 46.832 350.313 46.656C350.617 46.48 350.861 46.224 351.045 45.888C351.237 45.544 351.333 45.144 351.333 44.688ZM347.589 40.704C347.653 40.24 347.805 39.892 348.045 39.66C348.285 39.42 348.585 39.3 348.945 39.3C349.097 39.3 349.229 39.324 349.341 39.372C349.453 39.42 349.589 39.492 349.749 39.588C349.869 39.668 349.969 39.728 350.049 39.768C350.137 39.808 350.233 39.828 350.337 39.828C350.473 39.828 350.585 39.788 350.673 39.708C350.769 39.62 350.829 39.492 350.853 39.324H351.621C351.557 39.788 351.405 40.14 351.165 40.38C350.925 40.612 350.625 40.728 350.265 40.728C350.113 40.728 349.977 40.704 349.857 40.656C349.737 40.6 349.605 40.524 349.461 40.428C349.317 40.34 349.205 40.28 349.125 40.248C349.053 40.208 348.969 40.188 348.873 40.188C348.737 40.188 348.621 40.232 348.525 40.32C348.437 40.408 348.381 40.536 348.357 40.704H347.589ZM357.377 48.108C356.753 48.108 356.189 47.968 355.685 47.688C355.181 47.4 354.785 47 354.497 46.488C354.209 45.968 354.065 45.368 354.065 44.688C354.065 44.016 354.213 43.42 354.509 42.9C354.805 42.38 355.209 41.98 355.721 41.7C356.233 41.42 356.805 41.28 357.437 41.28C358.069 41.28 358.641 41.42 359.153 41.7C359.665 41.98 360.069 42.38 360.365 42.9C360.661 43.42 360.809 44.016 360.809 44.688C360.809 45.36 360.657 45.956 360.353 46.476C360.049 46.996 359.633 47.4 359.105 47.688C358.585 47.968 358.009 48.108 357.377 48.108ZM357.377 46.92C357.729 46.92 358.057 46.836 358.361 46.668C358.673 46.5 358.925 46.248 359.117 45.912C359.309 45.576 359.405 45.168 359.405 44.688C359.405 44.208 359.313 43.804 359.129 43.476C358.945 43.14 358.701 42.888 358.397 42.72C358.093 42.552 357.765 42.468 357.413 42.468C357.061 42.468 356.733 42.552 356.429 42.72C356.133 42.888 355.897 43.14 355.721 43.476C355.545 43.804 355.457 44.208 355.457 44.688C355.457 45.4 355.637 45.952 355.997 46.344C356.365 46.728 356.825 46.92 357.377 46.92Z" fill="#0A846B"/>
<circle cx="338" cy="14" r="14" fill="#84C1B4"/>
<g clip-path="url(#clip1_370_974)">
<path d="M341.256 11.9356C341.59 12.2838 341.58 12.838 341.231 13.1728L338.545 15.7535C338.155 16.1379 337.64 16.3304 337.123 16.3304C336.606 16.3304 336.088 16.1379 335.693 15.7523L334.79 14.9427C334.431 14.6195 334.401 14.0665 334.725 13.7072C335.048 13.3484 335.6 13.3175 335.961 13.6413L336.889 14.4754C337.028 14.6096 337.213 14.6107 337.324 14.4999L340.019 11.9111C340.368 11.5762 340.92 11.5862 341.256 11.9356ZM345 14C345 17.8599 341.86 21 338 21C334.14 21 331 17.8599 331 14C331 10.1401 334.14 7 338 7C341.86 7 345 10.1401 345 14ZM343.25 14C343.25 11.1055 340.895 8.75 338 8.75C335.105 8.75 332.75 11.1055 332.75 14C332.75 16.8945 335.105 19.25 338 19.25C340.895 19.25 343.25 16.8945 343.25 14Z" fill="white"/>
</g>
<circle cx="230" cy="14" r="14" fill="#84C1B4"/>
<path d="M230 6C225.589 6 222 9.58867 222 14C222 18.4113 225.589 22 230 22C234.411 22 238 18.4113 238 14C238 9.58867 234.411 6 230 6ZM230 20.6667C226.324 20.6667 223.333 17.676 223.333 14C223.333 10.324 226.324 7.33333 230 7.33333C233.676 7.33333 236.667 10.324 236.667 14C236.667 17.676 233.676 20.6667 230 20.6667ZM232.667 15.3333C232.667 16.436 231.769 17.3333 230.667 17.3333V18C230.667 18.3687 230.369 18.6667 230 18.6667C229.631 18.6667 229.333 18.3687 229.333 18V17.3333H229.155C228.443 17.3333 227.779 16.9507 227.423 16.334C227.238 16.0147 227.347 15.6073 227.665 15.4233C227.985 15.2373 228.393 15.348 228.576 15.666C228.695 15.8727 228.917 16 229.154 16H230.666C231.034 16 231.333 15.7013 231.333 15.3333C231.333 15.0813 231.152 14.868 230.903 14.8267L228.876 14.4887C227.981 14.34 227.333 13.5733 227.333 12.6667C227.333 11.564 228.23 10.6667 229.333 10.6667V10C229.333 9.632 229.631 9.33333 229.999 9.33333C230.368 9.33333 230.666 9.632 230.666 10V10.6667H230.845C231.556 10.6667 232.22 11.05 232.577 11.6667C232.761 11.9853 232.652 12.3927 232.334 12.5773C232.014 12.762 231.607 12.6527 231.423 12.334C231.304 12.128 231.083 12.0007 230.845 12.0007H229.333C228.965 12.0007 228.667 12.3 228.667 12.6673C228.667 12.9193 228.847 13.1327 229.096 13.174L231.123 13.512C232.018 13.6607 232.667 14.4273 232.667 15.334V15.3333Z" fill="white"/>
<defs>
<clipPath id="clip0_370_974">
<rect width="14" height="14" fill="white" transform="translate(7 7)"/>
</clipPath>
<clipPath id="clip1_370_974">
<rect width="14" height="14" fill="white" transform="translate(331 7)"/>
</clipPath>
</defs>
</svg>
