<svg width="22" height="24" viewBox="0 0 22 24" fill="none" xmlns="http://www.w3.org/2000/svg">
<path d="M19.137 24C18.7671 23.999 18.401 23.9247 18.0599 23.7813C17.7189 23.638 17.4096 23.4285 17.15 23.165L11 17.051L4.85 23.169C4.45503 23.5697 3.94849 23.8422 3.39642 23.9508C2.84435 24.0594 2.27235 23.9992 1.755 23.778C1.23252 23.5678 0.785547 23.205 0.47246 22.7369C0.159372 22.2688 -0.00528132 21.7171 1.16594e-06 21.154V5C1.16594e-06 3.67392 0.526785 2.40215 1.46447 1.46447C2.40215 0.526784 3.67392 0 5 0L17 0C17.6566 0 18.3068 0.129329 18.9134 0.380602C19.5201 0.631876 20.0712 1.00017 20.5355 1.46447C20.9998 1.92876 21.3681 2.47996 21.6194 3.08658C21.8707 3.69321 22 4.34339 22 5V21.154C22.0056 21.7167 21.8415 22.268 21.5292 22.7361C21.2169 23.2041 20.7707 23.5672 20.249 23.778C19.8968 23.9253 19.5188 24.0008 19.137 24ZM5 2C4.20435 2 3.44129 2.31607 2.87868 2.87868C2.31607 3.44129 2 4.20435 2 5V21.154C1.99964 21.3206 2.04867 21.4836 2.1409 21.6224C2.23313 21.7612 2.36442 21.8695 2.51819 21.9337C2.67196 21.9979 2.84131 22.0151 3.00484 21.9831C3.16838 21.9512 3.31876 21.8714 3.437 21.754L10.3 14.933C10.4874 14.7468 10.7408 14.6422 11.005 14.6422C11.2692 14.6422 11.5226 14.7468 11.71 14.933L18.565 21.752C18.6832 21.8694 18.8336 21.9492 18.9972 21.9811C19.1607 22.0131 19.33 21.9959 19.4838 21.9317C19.6376 21.8675 19.7689 21.7592 19.8611 21.6204C19.9533 21.4816 20.0024 21.3186 20.002 21.152V5C20.002 4.20435 19.6859 3.44129 19.1233 2.87868C18.5607 2.31607 17.7977 2 17.002 2H5Z" fill="#0A846B"/>
</svg>
