<svg width="15" height="16" viewBox="0 0 15 16" fill="none" xmlns="http://www.w3.org/2000/svg">
<path fill-rule="evenodd" clip-rule="evenodd" d="M14.8541 6.23132H14.25V6.2002H7.5V9.2002H11.7386C11.1203 10.9466 9.45863 12.2002 7.5 12.2002C5.01488 12.2002 3 10.1853 3 7.7002C3 5.21507 5.01488 3.2002 7.5 3.2002C8.64713 3.2002 9.69075 3.63295 10.4854 4.33982L12.6067 2.21845C11.2673 0.97007 9.4755 0.200195 7.5 0.200195C3.35813 0.200195 0 3.55832 0 7.7002C0 11.8421 3.35813 15.2002 7.5 15.2002C11.6419 15.2002 15 11.8421 15 7.7002C15 7.19732 14.9482 6.70645 14.8541 6.23132Z" fill="#FFC107"/>
<path fill-rule="evenodd" clip-rule="evenodd" d="M0.864746 4.20932L3.32887 6.01645C3.99562 4.36569 5.61037 3.2002 7.5 3.2002C8.64712 3.2002 9.69075 3.63295 10.4854 4.33982L12.6067 2.21845C11.2672 0.97007 9.4755 0.200195 7.5 0.200195C4.61925 0.200195 2.121 1.82657 0.864746 4.20932Z" fill="#FF3D00"/>
<path fill-rule="evenodd" clip-rule="evenodd" d="M7.50012 15.2002C9.43737 15.2002 11.1976 14.4588 12.5285 13.2532L10.2072 11.289C9.45424 11.8593 8.51824 12.2002 7.50012 12.2002C5.54937 12.2002 3.89299 10.9563 3.26899 9.22046L0.823242 11.1048C2.06449 13.5337 4.58524 15.2002 7.50012 15.2002Z" fill="#4CAF50"/>
<path fill-rule="evenodd" clip-rule="evenodd" d="M14.8541 6.23132H14.25V6.2002H7.5V9.2002H11.7386C11.4416 10.0391 10.902 10.7624 10.206 11.2893C10.2064 11.2889 10.2068 11.2889 10.2071 11.2886L12.5284 13.2528C12.3641 13.4021 15 11.4502 15 7.7002C15 7.19732 14.9482 6.70645 14.8541 6.23132Z" fill="#1976D2"/>
</svg>
