<svg width="15" height="18" viewBox="0 0 15 18" fill="none" xmlns="http://www.w3.org/2000/svg">
<g clip-path="url(#clip0_993_13901)">
<path d="M7.95137 17.55C9.84244 15.293 14.1554 9.82266 14.1554 6.75C14.1554 3.02344 10.9852 0 7.07771 0C3.17022 0 0 3.02344 0 6.75C0 9.82266 4.31298 15.293 6.20406 17.55C6.65747 18.0879 7.49795 18.0879 7.95137 17.55ZM7.07771 4.5C7.70342 4.5 8.3035 4.73705 8.74594 5.15901C9.18839 5.58097 9.43695 6.15326 9.43695 6.75C9.43695 7.34674 9.18839 7.91903 8.74594 8.34099C8.3035 8.76295 7.70342 9 7.07771 9C6.452 9 5.85192 8.76295 5.40948 8.34099C4.96704 7.91903 4.71847 7.34674 4.71847 6.75C4.71847 6.15326 4.96704 5.58097 5.40948 5.15901C5.85192 4.73705 6.452 4.5 7.07771 4.5Z" fill="#7F8FA4"/>
</g>
<defs>
<clipPath id="clip0_993_13901">
<rect width="14.1554" height="18" fill="white"/>
</clipPath>
</defs>
</svg>
