<svg width="24" height="24" viewBox="0 0 24 24" fill="none" xmlns="http://www.w3.org/2000/svg">
<path d="M23.6097 10.8343L21.8917 7.24225C21.6737 6.78725 21.1497 6.56425 20.6727 6.72525L11.9957 9.62125L3.30671 6.72625C2.82971 6.56725 2.30571 6.78825 2.08771 7.24425L0.435707 10.7173C-0.0412931 11.5093 -0.131293 12.4603 0.188707 13.3263C0.498707 14.1663 1.15271 14.8173 1.98971 15.1213L1.98371 17.4363C1.98371 19.5933 3.35671 21.5013 5.40271 22.1833L9.76771 23.6393C10.4817 23.8763 11.2317 23.9953 11.9817 23.9953C12.7317 23.9953 13.4817 23.8763 14.1957 23.6383L18.5647 22.1823C20.6087 21.5003 21.9827 19.5963 21.9837 17.4443L21.9897 15.1223C22.8357 14.8263 23.4977 14.1773 23.8087 13.3343C24.1247 12.4763 24.0357 11.5343 23.6097 10.8343ZM2.19371 11.6643L3.51171 8.90125L10.5767 11.2553L8.95671 14.5113C8.71471 14.9173 8.22771 15.0953 7.78271 14.9473L2.70171 13.2523C2.40371 13.1533 2.17171 12.9283 2.06271 12.6343C1.95471 12.3413 1.98571 12.0183 2.19371 11.6643ZM6.03571 20.2873C4.80771 19.8773 3.98271 18.7323 3.98371 17.4393L3.98771 15.7893L7.15171 16.8443C8.49771 17.2903 9.94471 16.7543 10.7107 15.4723L10.9877 14.9173L10.9837 21.8963C10.7867 21.8563 10.5927 21.8053 10.4017 21.7423L6.03671 20.2873H6.03571ZM17.9317 20.2853L13.5627 21.7413C13.3727 21.8043 13.1787 21.8563 12.9827 21.8963L12.9867 14.9013L13.3057 15.5413C13.8627 16.4693 14.8377 17.0013 15.8677 17.0013C16.1857 17.0013 16.5107 16.9503 16.8277 16.8443L19.9877 15.7913L19.9837 17.4423C19.9837 18.7343 19.1587 19.8763 17.9317 20.2853ZM21.9317 12.6403C21.8267 12.9253 21.6007 13.1443 21.3127 13.2413L16.1947 14.9463C15.7567 15.0933 15.2597 14.9103 15.0587 14.5813L13.4047 11.2593L20.4687 8.90225L21.8507 11.7823C22.0067 12.0433 22.0377 12.3553 21.9317 12.6403ZM5.21371 5.89425C4.82271 5.50325 4.82271 4.87125 5.21371 4.48025L9.11071 0.58425C9.88971 -0.19475 11.1597 -0.19475 11.9387 0.58425L13.5347 2.18025C14.2877 1.79525 15.2727 1.91025 15.8877 2.52525L18.1427 4.78025C18.5337 5.17125 18.5337 5.80325 18.1427 6.19425C17.7517 6.58525 17.1197 6.58525 16.7287 6.19425L14.4737 3.93925L11.3227 7.09025C11.1277 7.28525 10.8717 7.38325 10.6157 7.38325C10.3597 7.38325 10.1037 7.28525 9.90871 7.09025C9.51771 6.69925 9.51771 6.06725 9.90871 5.67625L12.0557 3.52925L10.5257 1.99925L6.62871 5.89525C6.43371 6.09025 6.17771 6.18825 5.92171 6.18825C5.66571 6.18825 5.40971 6.09025 5.21471 5.89525L5.21371 5.89425Z" fill="#0A846B"/>
</svg>
