<svg width="490" height="57" viewBox="0 0 490 57" fill="none" xmlns="http://www.w3.org/2000/svg">
<rect x="38" y="17" width="413" height="4" fill="#ACD2CA"/>
<circle cx="23" cy="19" r="14" fill="#0A846B"/>
<circle cx="245" cy="18" r="14" fill="#0A846B"/>
<circle cx="463" cy="19" r="14" fill="#ACD2CA"/>
<path d="M21.54 15.5V14.252H24.036V23H22.656V15.5H21.54Z" fill="white"/>
<path d="M459.696 16.412C459.744 15.668 460.028 15.088 460.548 14.672C461.076 14.256 461.748 14.048 462.564 14.048C463.124 14.048 463.608 14.148 464.016 14.348C464.424 14.548 464.732 14.82 464.94 15.164C465.148 15.508 465.252 15.896 465.252 16.328C465.252 16.824 465.12 17.248 464.856 17.6C464.592 17.952 464.276 18.188 463.908 18.308V18.356C464.38 18.5 464.748 18.764 465.012 19.148C465.276 19.524 465.408 20.008 465.408 20.6C465.408 21.072 465.3 21.492 465.084 21.86C464.868 22.228 464.548 22.52 464.124 22.736C463.7 22.944 463.192 23.048 462.6 23.048C461.736 23.048 461.024 22.828 460.464 22.388C459.912 21.94 459.616 21.3 459.576 20.468H460.896C460.928 20.892 461.092 21.24 461.388 21.512C461.684 21.776 462.084 21.908 462.588 21.908C463.076 21.908 463.452 21.776 463.716 21.512C463.98 21.24 464.112 20.892 464.112 20.468C464.112 19.908 463.932 19.512 463.572 19.28C463.22 19.04 462.676 18.92 461.94 18.92H461.628V17.792H461.952C462.6 17.784 463.092 17.676 463.428 17.468C463.772 17.26 463.944 16.932 463.944 16.484C463.944 16.1 463.82 15.796 463.572 15.572C463.324 15.34 462.972 15.224 462.516 15.224C462.068 15.224 461.72 15.34 461.472 15.572C461.224 15.796 461.076 16.076 461.028 16.412H459.696Z" fill="#0A846B"/>
<rect x="36" y="17" width="318" height="4" fill="#0A846B"/>
<path d="M243.476 20.14C244.244 19.476 244.848 18.932 245.288 18.508C245.736 18.076 246.108 17.628 246.404 17.164C246.7 16.7 246.848 16.236 246.848 15.772C246.848 15.292 246.732 14.916 246.5 14.644C246.276 14.372 245.92 14.236 245.432 14.236C244.96 14.236 244.592 14.388 244.328 14.692C244.072 14.988 243.936 15.388 243.92 15.892H242.6C242.624 14.98 242.896 14.284 243.416 13.804C243.944 13.316 244.612 13.072 245.42 13.072C246.292 13.072 246.972 13.312 247.46 13.792C247.956 14.272 248.204 14.912 248.204 15.712C248.204 16.288 248.056 16.844 247.76 17.38C247.472 17.908 247.124 18.384 246.716 18.808C246.316 19.224 245.804 19.708 245.18 20.26L244.64 20.74H248.444V21.88H242.612V20.884L243.476 20.14Z" fill="white"/>
<path d="M2.268 44.764V47.212H5.148V48.328H2.268V50.884H5.508V52H0.9V43.648H5.508V44.764H2.268ZM10.529 45.28C11.049 45.28 11.513 45.388 11.921 45.604C12.337 45.82 12.661 46.14 12.893 46.564C13.125 46.988 13.241 47.5 13.241 48.1V52H11.885V48.304C11.885 47.712 11.737 47.26 11.441 46.948C11.145 46.628 10.741 46.468 10.229 46.468C9.71697 46.468 9.30897 46.628 9.00497 46.948C8.70897 47.26 8.56097 47.712 8.56097 48.304V52H7.19297V45.388H8.56097V46.144C8.78497 45.872 9.06897 45.66 9.41297 45.508C9.76497 45.356 10.137 45.28 10.529 45.28ZM16.5819 46.504V50.164C16.5819 50.412 16.6379 50.592 16.7499 50.704C16.8699 50.808 17.0699 50.86 17.3499 50.86H18.1899V52H17.1099C16.4939 52 16.0219 51.856 15.6939 51.568C15.3659 51.28 15.2019 50.812 15.2019 50.164V46.504H14.4219V45.388H15.2019V43.744H16.5819V45.388H18.1899V46.504H16.5819ZM20.8188 46.348C21.0188 46.012 21.2828 45.752 21.6108 45.568C21.9468 45.376 22.3428 45.28 22.7988 45.28V46.696H22.4508C21.9148 46.696 21.5068 46.832 21.2268 47.104C20.9548 47.376 20.8188 47.848 20.8188 48.52V52H19.4508V45.388H20.8188V46.348ZM30.1163 48.532C30.1163 48.78 30.1003 49.004 30.0683 49.204H25.0163C25.0563 49.732 25.2523 50.156 25.6043 50.476C25.9563 50.796 26.3883 50.956 26.9003 50.956C27.6363 50.956 28.1563 50.648 28.4603 50.032H29.9362C29.7363 50.64 29.3723 51.14 28.8443 51.532C28.3243 51.916 27.6763 52.108 26.9003 52.108C26.2683 52.108 25.7003 51.968 25.1963 51.688C24.7003 51.4 24.3083 51 24.0203 50.488C23.7403 49.968 23.6003 49.368 23.6003 48.688C23.6003 48.008 23.7363 47.412 24.0083 46.9C24.2883 46.38 24.6763 45.98 25.1723 45.7C25.6763 45.42 26.2523 45.28 26.9003 45.28C27.5243 45.28 28.0803 45.416 28.5683 45.688C29.0563 45.96 29.4363 46.344 29.7083 46.84C29.9803 47.328 30.1163 47.892 30.1163 48.532ZM28.6883 48.1C28.6803 47.596 28.5003 47.192 28.1483 46.888C27.7963 46.584 27.3603 46.432 26.8403 46.432C26.3683 46.432 25.9643 46.584 25.6283 46.888C25.2923 47.184 25.0923 47.588 25.0283 48.1H28.6883ZM34.1265 45.28C34.6385 45.28 35.0905 45.384 35.4825 45.592C35.8825 45.792 36.1945 46.044 36.4185 46.348V45.388H37.7985V52.108C37.7985 52.716 37.6705 53.256 37.4145 53.728C37.1585 54.208 36.7865 54.584 36.2985 54.856C35.8185 55.128 35.2425 55.264 34.5705 55.264C33.6745 55.264 32.9305 55.052 32.3385 54.628C31.7465 54.212 31.4105 53.644 31.3305 52.924H32.6865C32.7905 53.268 33.0105 53.544 33.3465 53.752C33.6905 53.968 34.0985 54.076 34.5705 54.076C35.1225 54.076 35.5665 53.908 35.9025 53.572C36.2465 53.236 36.4185 52.748 36.4185 52.108V51.004C36.1865 51.316 35.8705 51.58 35.4705 51.796C35.0785 52.004 34.6305 52.108 34.1265 52.108C33.5505 52.108 33.0225 51.964 32.5425 51.676C32.0705 51.38 31.6945 50.972 31.4145 50.452C31.1425 49.924 31.0065 49.328 31.0065 48.664C31.0065 48 31.1425 47.412 31.4145 46.9C31.6945 46.388 32.0705 45.992 32.5425 45.712C33.0225 45.424 33.5505 45.28 34.1265 45.28ZM36.4185 48.688C36.4185 48.232 36.3225 47.836 36.1305 47.5C35.9465 47.164 35.7025 46.908 35.3985 46.732C35.0945 46.556 34.7665 46.468 34.4145 46.468C34.0625 46.468 33.7345 46.556 33.4305 46.732C33.1265 46.9 32.8785 47.152 32.6865 47.488C32.5025 47.816 32.4105 48.208 32.4105 48.664C32.4105 49.12 32.5025 49.52 32.6865 49.864C32.8785 50.208 33.1265 50.472 33.4305 50.656C33.7425 50.832 34.0705 50.92 34.4145 50.92C34.7665 50.92 35.0945 50.832 35.3985 50.656C35.7025 50.48 35.9465 50.224 36.1305 49.888C36.3225 49.544 36.4185 49.144 36.4185 48.688ZM39.1393 48.664C39.1393 48 39.2753 47.412 39.5473 46.9C39.8273 46.388 40.2033 45.992 40.6753 45.712C41.1553 45.424 41.6833 45.28 42.2593 45.28C42.7793 45.28 43.2313 45.384 43.6153 45.592C44.0073 45.792 44.3193 46.044 44.5513 46.348V45.388H45.9313V52H44.5513V51.016C44.3193 51.328 44.0033 51.588 43.6033 51.796C43.2033 52.004 42.7473 52.108 42.2353 52.108C41.6673 52.108 41.1473 51.964 40.6753 51.676C40.2033 51.38 39.8273 50.972 39.5473 50.452C39.2753 49.924 39.1393 49.328 39.1393 48.664ZM44.5513 48.688C44.5513 48.232 44.4553 47.836 44.2633 47.5C44.0793 47.164 43.8353 46.908 43.5313 46.732C43.2273 46.556 42.8993 46.468 42.5473 46.468C42.1953 46.468 41.8673 46.556 41.5633 46.732C41.2593 46.9 41.0113 47.152 40.8193 47.488C40.6353 47.816 40.5433 48.208 40.5433 48.664C40.5433 49.12 40.6353 49.52 40.8193 49.864C41.0113 50.208 41.2593 50.472 41.5633 50.656C41.8753 50.832 42.2033 50.92 42.5473 50.92C42.8993 50.92 43.2273 50.832 43.5313 50.656C43.8353 50.48 44.0793 50.224 44.2633 49.888C44.4553 49.544 44.5513 49.144 44.5513 48.688Z" fill="#0A846B"/>
<path d="M215.732 46.144C215.732 46.568 215.632 46.968 215.432 47.344C215.232 47.72 214.912 48.028 214.472 48.268C214.032 48.5 213.468 48.616 212.78 48.616H211.268V52H209.9V43.66H212.78C213.42 43.66 213.96 43.772 214.4 43.996C214.848 44.212 215.18 44.508 215.396 44.884C215.62 45.26 215.732 45.68 215.732 46.144ZM212.78 47.5C213.3 47.5 213.688 47.384 213.944 47.152C214.2 46.912 214.328 46.576 214.328 46.144C214.328 45.232 213.812 44.776 212.78 44.776H211.268V47.5H212.78ZM216.581 48.664C216.581 48 216.717 47.412 216.989 46.9C217.269 46.388 217.645 45.992 218.117 45.712C218.597 45.424 219.125 45.28 219.701 45.28C220.221 45.28 220.673 45.384 221.057 45.592C221.449 45.792 221.761 46.044 221.993 46.348V45.388H223.373V52H221.993V51.016C221.761 51.328 221.445 51.588 221.045 51.796C220.645 52.004 220.189 52.108 219.677 52.108C219.109 52.108 218.589 51.964 218.117 51.676C217.645 51.38 217.269 50.972 216.989 50.452C216.717 49.924 216.581 49.328 216.581 48.664ZM221.993 48.688C221.993 48.232 221.897 47.836 221.705 47.5C221.521 47.164 221.277 46.908 220.973 46.732C220.669 46.556 220.341 46.468 219.989 46.468C219.637 46.468 219.309 46.556 219.005 46.732C218.701 46.9 218.453 47.152 218.261 47.488C218.077 47.816 217.985 48.208 217.985 48.664C217.985 49.12 218.077 49.52 218.261 49.864C218.453 50.208 218.701 50.472 219.005 50.656C219.317 50.832 219.645 50.92 219.989 50.92C220.341 50.92 220.669 50.832 220.973 50.656C221.277 50.48 221.521 50.224 221.705 49.888C221.897 49.544 221.993 49.144 221.993 48.688ZM227.834 45.28C228.346 45.28 228.798 45.384 229.19 45.592C229.59 45.792 229.902 46.044 230.126 46.348V45.388H231.506V52.108C231.506 52.716 231.378 53.256 231.122 53.728C230.866 54.208 230.494 54.584 230.006 54.856C229.526 55.128 228.95 55.264 228.278 55.264C227.382 55.264 226.638 55.052 226.046 54.628C225.454 54.212 225.118 53.644 225.038 52.924H226.394C226.498 53.268 226.718 53.544 227.054 53.752C227.398 53.968 227.806 54.076 228.278 54.076C228.83 54.076 229.274 53.908 229.61 53.572C229.954 53.236 230.126 52.748 230.126 52.108V51.004C229.894 51.316 229.578 51.58 229.178 51.796C228.786 52.004 228.338 52.108 227.834 52.108C227.258 52.108 226.73 51.964 226.25 51.676C225.778 51.38 225.402 50.972 225.122 50.452C224.85 49.924 224.714 49.328 224.714 48.664C224.714 48 224.85 47.412 225.122 46.9C225.402 46.388 225.778 45.992 226.25 45.712C226.73 45.424 227.258 45.28 227.834 45.28ZM230.126 48.688C230.126 48.232 230.03 47.836 229.838 47.5C229.654 47.164 229.41 46.908 229.106 46.732C228.802 46.556 228.474 46.468 228.122 46.468C227.77 46.468 227.442 46.556 227.138 46.732C226.834 46.9 226.586 47.152 226.394 47.488C226.21 47.816 226.118 48.208 226.118 48.664C226.118 49.12 226.21 49.52 226.394 49.864C226.586 50.208 226.834 50.472 227.138 50.656C227.45 50.832 227.778 50.92 228.122 50.92C228.474 50.92 228.802 50.832 229.106 50.656C229.41 50.48 229.654 50.224 229.838 49.888C230.03 49.544 230.126 49.144 230.126 48.688ZM232.846 48.664C232.846 48 232.982 47.412 233.254 46.9C233.534 46.388 233.91 45.992 234.382 45.712C234.862 45.424 235.39 45.28 235.966 45.28C236.486 45.28 236.938 45.384 237.322 45.592C237.714 45.792 238.026 46.044 238.258 46.348V45.388H239.638V52H238.258V51.016C238.026 51.328 237.71 51.588 237.31 51.796C236.91 52.004 236.454 52.108 235.942 52.108C235.374 52.108 234.854 51.964 234.382 51.676C233.91 51.38 233.534 50.972 233.254 50.452C232.982 49.924 232.846 49.328 232.846 48.664ZM238.258 48.688C238.258 48.232 238.162 47.836 237.97 47.5C237.786 47.164 237.542 46.908 237.238 46.732C236.934 46.556 236.606 46.468 236.254 46.468C235.902 46.468 235.574 46.556 235.27 46.732C234.966 46.9 234.718 47.152 234.526 47.488C234.342 47.816 234.25 48.208 234.25 48.664C234.25 49.12 234.342 49.52 234.526 49.864C234.718 50.208 234.966 50.472 235.27 50.656C235.582 50.832 235.91 50.92 236.254 50.92C236.606 50.92 236.934 50.832 237.238 50.656C237.542 50.48 237.786 50.224 237.97 49.888C238.162 49.544 238.258 49.144 238.258 48.688ZM249.439 45.28C249.959 45.28 250.423 45.388 250.831 45.604C251.247 45.82 251.571 46.14 251.803 46.564C252.043 46.988 252.163 47.5 252.163 48.1V52H250.807V48.304C250.807 47.712 250.659 47.26 250.363 46.948C250.067 46.628 249.663 46.468 249.151 46.468C248.639 46.468 248.231 46.628 247.927 46.948C247.631 47.26 247.483 47.712 247.483 48.304V52H246.127V48.304C246.127 47.712 245.979 47.26 245.683 46.948C245.387 46.628 244.983 46.468 244.471 46.468C243.959 46.468 243.551 46.628 243.247 46.948C242.951 47.26 242.803 47.712 242.803 48.304V52H241.435V45.388H242.803V46.144C243.027 45.872 243.311 45.66 243.655 45.508C243.999 45.356 244.367 45.28 244.759 45.28C245.287 45.28 245.759 45.392 246.175 45.616C246.591 45.84 246.911 46.164 247.135 46.588C247.335 46.188 247.647 45.872 248.071 45.64C248.495 45.4 248.951 45.28 249.439 45.28ZM259.964 48.532C259.964 48.78 259.948 49.004 259.916 49.204H254.864C254.904 49.732 255.1 50.156 255.452 50.476C255.804 50.796 256.236 50.956 256.748 50.956C257.484 50.956 258.004 50.648 258.308 50.032H259.784C259.584 50.64 259.22 51.14 258.692 51.532C258.172 51.916 257.524 52.108 256.748 52.108C256.116 52.108 255.548 51.968 255.044 51.688C254.548 51.4 254.156 51 253.868 50.488C253.588 49.968 253.448 49.368 253.448 48.688C253.448 48.008 253.584 47.412 253.856 46.9C254.136 46.38 254.524 45.98 255.02 45.7C255.524 45.42 256.1 45.28 256.748 45.28C257.372 45.28 257.928 45.416 258.416 45.688C258.904 45.96 259.284 46.344 259.556 46.84C259.828 47.328 259.964 47.892 259.964 48.532ZM258.536 48.1C258.528 47.596 258.348 47.192 257.996 46.888C257.644 46.584 257.208 46.432 256.688 46.432C256.216 46.432 255.812 46.584 255.476 46.888C255.14 47.184 254.94 47.588 254.876 48.1H258.536ZM264.646 45.28C265.166 45.28 265.63 45.388 266.038 45.604C266.454 45.82 266.778 46.14 267.01 46.564C267.242 46.988 267.358 47.5 267.358 48.1V52H266.002V48.304C266.002 47.712 265.854 47.26 265.558 46.948C265.262 46.628 264.858 46.468 264.346 46.468C263.834 46.468 263.426 46.628 263.122 46.948C262.826 47.26 262.678 47.712 262.678 48.304V52H261.31V45.388H262.678V46.144C262.902 45.872 263.186 45.66 263.53 45.508C263.882 45.356 264.254 45.28 264.646 45.28ZM270.699 46.504V50.164C270.699 50.412 270.755 50.592 270.867 50.704C270.987 50.808 271.187 50.86 271.467 50.86H272.307V52H271.227C270.611 52 270.139 51.856 269.811 51.568C269.483 51.28 269.319 50.812 269.319 50.164V46.504H268.539V45.388H269.319V43.744H270.699V45.388H272.307V46.504H270.699ZM276.436 52.108C275.812 52.108 275.248 51.968 274.744 51.688C274.24 51.4 273.844 51 273.556 50.488C273.268 49.968 273.124 49.368 273.124 48.688C273.124 48.016 273.272 47.42 273.568 46.9C273.864 46.38 274.268 45.98 274.78 45.7C275.292 45.42 275.864 45.28 276.496 45.28C277.128 45.28 277.7 45.42 278.212 45.7C278.724 45.98 279.128 46.38 279.424 46.9C279.72 47.42 279.868 48.016 279.868 48.688C279.868 49.36 279.716 49.956 279.412 50.476C279.108 50.996 278.692 51.4 278.164 51.688C277.644 51.968 277.068 52.108 276.436 52.108ZM276.436 50.92C276.788 50.92 277.116 50.836 277.42 50.668C277.732 50.5 277.984 50.248 278.176 49.912C278.368 49.576 278.464 49.168 278.464 48.688C278.464 48.208 278.372 47.804 278.188 47.476C278.004 47.14 277.76 46.888 277.456 46.72C277.152 46.552 276.824 46.468 276.472 46.468C276.12 46.468 275.792 46.552 275.488 46.72C275.192 46.888 274.956 47.14 274.78 47.476C274.604 47.804 274.516 48.208 274.516 48.688C274.516 49.4 274.696 49.952 275.056 50.344C275.424 50.728 275.884 50.92 276.436 50.92Z" fill="#0A846B"/>
<path d="M444.232 56L442.312 52.664H441.268V56H439.9V47.66H442.78C443.42 47.66 443.96 47.772 444.4 47.996C444.848 48.22 445.18 48.52 445.396 48.896C445.62 49.272 445.732 49.692 445.732 50.156C445.732 50.7 445.572 51.196 445.252 51.644C444.94 52.084 444.456 52.384 443.8 52.544L445.864 56H444.232ZM441.268 51.572H442.78C443.292 51.572 443.676 51.444 443.932 51.188C444.196 50.932 444.328 50.588 444.328 50.156C444.328 49.724 444.2 49.388 443.944 49.148C443.688 48.9 443.3 48.776 442.78 48.776H441.268V51.572ZM453.542 52.532C453.542 52.78 453.526 53.004 453.494 53.204H448.442C448.482 53.732 448.678 54.156 449.03 54.476C449.382 54.796 449.814 54.956 450.326 54.956C451.062 54.956 451.582 54.648 451.886 54.032H453.362C453.162 54.64 452.798 55.14 452.27 55.532C451.75 55.916 451.102 56.108 450.326 56.108C449.694 56.108 449.126 55.968 448.622 55.688C448.126 55.4 447.734 55 447.446 54.488C447.166 53.968 447.026 53.368 447.026 52.688C447.026 52.008 447.162 51.412 447.434 50.9C447.714 50.38 448.102 49.98 448.598 49.7C449.102 49.42 449.678 49.28 450.326 49.28C450.95 49.28 451.506 49.416 451.994 49.688C452.482 49.96 452.862 50.344 453.134 50.84C453.406 51.328 453.542 51.892 453.542 52.532ZM452.114 52.1C452.106 51.596 451.926 51.192 451.574 50.888C451.222 50.584 450.786 50.432 450.266 50.432C449.794 50.432 449.39 50.584 449.054 50.888C448.718 51.184 448.518 51.588 448.454 52.1H452.114ZM457.444 54.776L459.316 49.388H460.768L458.248 56H456.616L454.108 49.388H455.572L457.444 54.776ZM462.498 48.512C462.25 48.512 462.042 48.428 461.874 48.26C461.706 48.092 461.622 47.884 461.622 47.636C461.622 47.388 461.706 47.18 461.874 47.012C462.042 46.844 462.25 46.76 462.498 46.76C462.738 46.76 462.942 46.844 463.11 47.012C463.278 47.18 463.362 47.388 463.362 47.636C463.362 47.884 463.278 48.092 463.11 48.26C462.942 48.428 462.738 48.512 462.498 48.512ZM463.17 49.388V56H461.802V49.388H463.17ZM467.366 56.108C466.846 56.108 466.378 56.016 465.962 55.832C465.554 55.64 465.23 55.384 464.99 55.064C464.75 54.736 464.622 54.372 464.606 53.972H466.022C466.046 54.252 466.178 54.488 466.418 54.68C466.666 54.864 466.974 54.956 467.342 54.956C467.726 54.956 468.022 54.884 468.23 54.74C468.446 54.588 468.554 54.396 468.554 54.164C468.554 53.916 468.434 53.732 468.194 53.612C467.962 53.492 467.59 53.36 467.078 53.216C466.582 53.08 466.178 52.948 465.866 52.82C465.554 52.692 465.282 52.496 465.05 52.232C464.826 51.968 464.714 51.62 464.714 51.188C464.714 50.836 464.818 50.516 465.026 50.228C465.234 49.932 465.53 49.7 465.914 49.532C466.306 49.364 466.754 49.28 467.258 49.28C468.01 49.28 468.614 49.472 469.07 49.856C469.534 50.232 469.782 50.748 469.814 51.404H468.446C468.422 51.108 468.302 50.872 468.086 50.696C467.87 50.52 467.578 50.432 467.21 50.432C466.85 50.432 466.574 50.5 466.382 50.636C466.19 50.772 466.094 50.952 466.094 51.176C466.094 51.352 466.158 51.5 466.286 51.62C466.414 51.74 466.57 51.836 466.754 51.908C466.938 51.972 467.21 52.056 467.57 52.16C468.05 52.288 468.442 52.42 468.746 52.556C469.058 52.684 469.326 52.876 469.55 53.132C469.774 53.388 469.89 53.728 469.898 54.152C469.898 54.528 469.794 54.864 469.586 55.16C469.378 55.456 469.082 55.688 468.698 55.856C468.322 56.024 467.878 56.108 467.366 56.108ZM470.921 52.664C470.921 52 471.057 51.412 471.329 50.9C471.609 50.388 471.985 49.992 472.457 49.712C472.937 49.424 473.465 49.28 474.041 49.28C474.561 49.28 475.013 49.384 475.397 49.592C475.789 49.792 476.101 50.044 476.333 50.348V49.388H477.713V56H476.333V55.016C476.101 55.328 475.785 55.588 475.385 55.796C474.985 56.004 474.529 56.108 474.017 56.108C473.449 56.108 472.929 55.964 472.457 55.676C471.985 55.38 471.609 54.972 471.329 54.452C471.057 53.924 470.921 53.328 470.921 52.664ZM476.333 52.688C476.333 52.232 476.237 51.836 476.045 51.5C475.861 51.164 475.617 50.908 475.313 50.732C475.009 50.556 474.681 50.468 474.329 50.468C473.977 50.468 473.649 50.556 473.345 50.732C473.041 50.9 472.793 51.152 472.601 51.488C472.417 51.816 472.325 52.208 472.325 52.664C472.325 53.12 472.417 53.52 472.601 53.864C472.793 54.208 473.041 54.472 473.345 54.656C473.657 54.832 473.985 54.92 474.329 54.92C474.681 54.92 475.009 54.832 475.313 54.656C475.617 54.48 475.861 54.224 476.045 53.888C476.237 53.544 476.333 53.144 476.333 52.688ZM472.589 48.704C472.653 48.24 472.805 47.892 473.045 47.66C473.285 47.42 473.585 47.3 473.945 47.3C474.097 47.3 474.229 47.324 474.341 47.372C474.453 47.42 474.589 47.492 474.749 47.588C474.869 47.668 474.969 47.728 475.049 47.768C475.137 47.808 475.233 47.828 475.337 47.828C475.473 47.828 475.585 47.788 475.673 47.708C475.769 47.62 475.829 47.492 475.853 47.324H476.621C476.557 47.788 476.405 48.14 476.165 48.38C475.925 48.612 475.625 48.728 475.265 48.728C475.113 48.728 474.977 48.704 474.857 48.656C474.737 48.6 474.605 48.524 474.461 48.428C474.317 48.34 474.205 48.28 474.125 48.248C474.053 48.208 473.969 48.188 473.873 48.188C473.737 48.188 473.621 48.232 473.525 48.32C473.437 48.408 473.381 48.536 473.357 48.704H472.589ZM482.377 56.108C481.753 56.108 481.189 55.968 480.685 55.688C480.181 55.4 479.785 55 479.497 54.488C479.209 53.968 479.065 53.368 479.065 52.688C479.065 52.016 479.213 51.42 479.509 50.9C479.805 50.38 480.209 49.98 480.721 49.7C481.233 49.42 481.805 49.28 482.437 49.28C483.069 49.28 483.641 49.42 484.153 49.7C484.665 49.98 485.069 50.38 485.365 50.9C485.661 51.42 485.809 52.016 485.809 52.688C485.809 53.36 485.657 53.956 485.353 54.476C485.049 54.996 484.633 55.4 484.105 55.688C483.585 55.968 483.009 56.108 482.377 56.108ZM482.377 54.92C482.729 54.92 483.057 54.836 483.361 54.668C483.673 54.5 483.925 54.248 484.117 53.912C484.309 53.576 484.405 53.168 484.405 52.688C484.405 52.208 484.313 51.804 484.129 51.476C483.945 51.14 483.701 50.888 483.397 50.72C483.093 50.552 482.765 50.468 482.413 50.468C482.061 50.468 481.733 50.552 481.429 50.72C481.133 50.888 480.897 51.14 480.721 51.476C480.545 51.804 480.457 52.208 480.457 52.688C480.457 53.4 480.637 53.952 480.997 54.344C481.365 54.728 481.825 54.92 482.377 54.92Z" fill="#0A846B"/>
</svg>
