<svg width="24" height="22" viewBox="0 0 24 22" fill="none" xmlns="http://www.w3.org/2000/svg">
<g clip-path="url(#clip0_985_12183)">
<path d="M23.2986 6.26645L21.9842 3.67595C21.6448 3.00679 21.0217 2.48795 20.275 2.25329L14.1529 0.329203C12.7646 -0.10713 11.2362 -0.10713 9.84791 0.329203L3.72679 2.25329C2.97916 2.48795 2.35596 3.0077 2.01666 3.67779L0.766377 6.1592C0.302627 6.8852 0.215127 7.75604 0.526239 8.55079C0.826655 9.32079 1.46346 9.91662 2.27818 10.1971L2.27332 15.985C2.27138 17.9631 3.60721 19.7121 5.59638 20.3373L9.84013 21.671C10.5343 21.8892 11.2635 21.9983 11.9926 21.9983C12.7218 21.9983 13.451 21.8892 14.1451 21.671L18.3928 20.3355C20.379 19.7112 21.7149 17.9659 21.7168 15.9914L21.7217 10.198C22.5442 9.92579 23.1878 9.33087 23.4901 8.5572C23.7983 7.7707 23.7128 6.90812 23.2986 6.26645ZM10.4633 2.06904C11.455 1.75737 12.5468 1.75737 13.5375 2.06904L17.6675 3.36704L12.0072 5.15454L6.33527 3.36704L10.4633 2.06904ZM2.47652 7.02729L3.76666 4.47712C3.81332 4.50004 10.6276 6.65237 10.6276 6.65237L9.05165 9.63887C8.81929 10.0037 8.33707 10.1724 7.91124 10.0367L2.97138 8.48479C2.68263 8.39404 2.4561 8.18687 2.35013 7.91737C2.24416 7.64787 2.27429 7.3527 2.47554 7.0282L2.47652 7.02729ZM6.21082 18.5984C5.01693 18.2235 4.21582 17.1739 4.21679 15.9877L4.22166 10.8104L7.29582 11.7765C8.60249 12.1872 10.0103 11.6968 10.756 10.5198L11.0262 10.0092L11.0214 20.0751C10.8298 20.0385 10.6412 19.9917 10.4565 19.933L6.21179 18.5993L6.21082 18.5984ZM17.7773 18.5975L13.5287 19.933C13.344 19.9908 13.1554 20.0385 12.9639 20.0751L12.9687 9.99637L13.2789 10.583C13.8194 11.4337 14.7683 11.9205 15.7687 11.9205C16.0789 11.9205 16.3939 11.8737 16.7021 11.7765L19.7753 10.8113L19.7704 15.9914C19.7704 17.1757 18.9674 18.2235 17.7754 18.5984L17.7773 18.5975ZM21.6662 7.92379C21.5642 8.18504 21.3444 8.38579 21.0644 8.47379L16.0886 10.0376C15.6628 10.1724 15.1805 10.0055 14.9842 9.70304L13.3751 6.65695C13.3751 6.65695 20.1865 4.50187 20.2332 4.47804L21.5875 7.13729C21.7401 7.37654 21.7683 7.66345 21.6662 7.9247V7.92379Z" fill="#0A846B"/>
</g>
<defs>
<clipPath id="clip0_985_12183">
<rect width="23.3333" height="22" fill="white" transform="translate(0.333496)"/>
</clipPath>
</defs>
</svg>
