<svg width="18" height="17" viewBox="0 0 18 17" fill="none" xmlns="http://www.w3.org/2000/svg">
<path d="M16.0515 13.5C17.1263 13.5 18 12.6255 18 11.5515V10.5C18 5.79 14.3632 1.914 9.75 1.5315V0.75C9.75 0.336 9.414 0 9 0C8.586 0 8.25 0.336 8.25 0.75V1.5315C3.63675 1.914 0 5.79 0 10.5V11.5515C0 12.6263 0.8745 13.5 1.9485 13.5H8.25V15H0.75C0.336 15 0 15.336 0 15.75C0 16.164 0.336 16.5 0.75 16.5H17.25C17.664 16.5 18 16.164 18 15.75C18 15.336 17.664 15 17.25 15H9.75V13.5H16.0515ZM1.5 11.5515V10.5C1.5 6.3645 4.8645 3 9 3C13.1355 3 16.5 6.3645 16.5 10.5V11.5515C16.5 11.799 16.2983 12 16.0515 12H1.9485C1.701 12 1.5 11.7983 1.5 11.5515Z" fill="white"/>
</svg>
