<svg width="24" height="24" viewBox="0 0 24 24" fill="none" xmlns="http://www.w3.org/2000/svg">
<path d="M21.7959 20.2034L17.3437 15.7494C18.6787 14.0098 19.3019 11.8276 19.087 9.64545C18.8722 7.46328 17.8353 5.44454 16.1867 3.99875C14.5382 2.55295 12.4014 1.78837 10.2098 1.86009C8.01829 1.93182 5.93607 2.83448 4.38558 4.38497C2.83509 5.93546 1.93243 8.01768 1.8607 10.2092C1.78898 12.4008 2.55356 14.5376 3.99936 16.1861C5.44515 17.8347 7.46389 18.8715 9.64606 19.0864C11.8282 19.3013 14.0104 18.678 15.75 17.3431L20.2059 21.8C20.3106 21.9047 20.4348 21.9877 20.5715 22.0443C20.7083 22.1009 20.8548 22.1301 21.0028 22.1301C21.1508 22.1301 21.2973 22.1009 21.4341 22.0443C21.5708 21.9877 21.695 21.9047 21.7997 21.8C21.9043 21.6954 21.9873 21.5711 22.044 21.4344C22.1006 21.2977 22.1298 21.1511 22.1298 21.0031C22.1298 20.8551 22.1006 20.7086 22.044 20.5719C21.9873 20.4351 21.9043 20.3109 21.7997 20.2063L21.7959 20.2034ZM4.12499 10.4994C4.12499 9.23853 4.49888 8.00599 5.19938 6.95762C5.89987 5.90926 6.89551 5.09216 8.06039 4.60965C9.22527 4.12714 10.5071 4.0009 11.7437 4.24688C12.9803 4.49286 14.1162 5.10002 15.0078 5.99158C15.8994 6.88314 16.5065 8.01905 16.7525 9.25568C16.9985 10.4923 16.8722 11.7741 16.3897 12.939C15.9072 14.1039 15.0901 15.0995 14.0418 15.8C12.9934 16.5005 11.7608 16.8744 10.5 16.8744C8.80977 16.8726 7.18927 16.2004 5.99411 15.0053C4.79894 13.8101 4.12673 12.1896 4.12499 10.4994Z" fill="#A8A8BD"/>
</svg>
