<svg width="16" height="15" viewBox="0 0 16 15" fill="none" xmlns="http://www.w3.org/2000/svg">
<path d="M8.31008 11.9111L11.8566 14.1577C12.31 14.4446 12.8725 14.0177 12.7381 13.4884L11.7138 9.45804C11.6848 9.34577 11.6882 9.22762 11.7234 9.11717C11.7586 9.00672 11.8243 8.90845 11.9129 8.83366L15.0933 6.1871C15.5106 5.83948 15.2958 5.14591 14.7586 5.11104L10.6056 4.84104C10.4938 4.83311 10.3866 4.79358 10.2964 4.72706C10.2061 4.66054 10.1367 4.56976 10.096 4.46529L8.5469 0.564912C8.50472 0.454065 8.42984 0.358658 8.33219 0.29134C8.23455 0.224022 8.11875 0.187973 8.00015 0.187973C7.88155 0.187973 7.76575 0.224022 7.6681 0.29134C7.57046 0.358658 7.49558 0.454065 7.4534 0.564912L5.90427 4.46529C5.86372 4.56986 5.79429 4.66076 5.70406 4.72738C5.61383 4.79401 5.50652 4.83362 5.39465 4.8416L1.24171 5.1116C0.705084 5.14591 0.489084 5.83948 0.907022 6.1871L4.0874 8.83422C4.17588 8.90896 4.2415 9.00714 4.27673 9.11748C4.31195 9.22782 4.31534 9.34585 4.28652 9.45804L3.33702 13.1959C3.17558 13.8309 3.85115 14.3434 4.39452 13.9985L7.69077 11.9111C7.78342 11.8522 7.89093 11.8209 8.00071 11.8209C8.11049 11.8209 8.218 11.8522 8.31065 11.9111H8.31008Z" fill="#FF8A00"/>
</svg>
