<svg width="18" height="18" viewBox="0 0 18 18" fill="none" xmlns="http://www.w3.org/2000/svg">
<g clip-path="url(#clip0_149_1771)">
<path d="M0.263867 0.094923C0.299023 0.151173 1.83887 2.39062 3.68457 5.08008C5.53027 7.76953 7.04199 9.98438 7.04199 10.002C7.04199 10.023 5.52676 11.802 3.67051 13.9605C1.81777 16.1156 0.27793 17.9086 0.249805 17.9402C0.204102 17.9965 0.25332 18 0.974023 18H1.74746L4.73223 14.5301C6.37402 12.6246 7.73457 11.0566 7.75215 11.0531C7.77324 11.0461 8.86309 12.607 10.1744 14.5195L12.5615 18H15.1771C17.6557 18 17.7893 17.9965 17.7576 17.9367C17.74 17.9051 16.1404 15.5742 14.2068 12.7617C12.2732 9.94922 10.6877 7.63945 10.6877 7.62891C10.6877 7.61484 12.1572 5.89922 13.9537 3.81445L17.2162 0.0175781L16.4604 0.00703239C15.8381 0 15.6939 0.00703239 15.6482 0.0492191C15.6166 0.0773449 14.3334 1.56445 12.7971 3.35039C11.2607 5.13984 9.9916 6.59531 9.97754 6.58828C9.96348 6.57773 8.93691 5.09414 7.6959 3.28711L5.43887 0H2.81973H0.204102L0.263867 0.094923ZM10.1604 8.98594C13.1662 13.2891 15.6342 16.8223 15.6377 16.8434C15.6482 16.8645 15.2229 16.8715 14.4635 16.868L13.2752 16.8574L7.79785 9.02461C4.78496 4.71445 2.32051 1.18125 2.32051 1.17422C2.32051 1.16719 2.85488 1.16016 3.50879 1.16016L4.69355 1.16367L10.1604 8.98594Z" fill="#4C4C4C"/>
</g>
<defs>
<clipPath id="clip0_149_1771">
<rect width="18" height="18" fill="white"/>
</clipPath>
</defs>
</svg>
